<svg width="200" height="200" viewBox="0 0 200 200" fill="none" xmlns="http://www.w3.org/2000/svg">
<path d="M0 73.2266C0 47.5949 0 34.779 4.98826 24.989C9.37606 16.3775 16.3775 9.37606 24.989 4.98826C34.779 0 47.5949 0 73.2266 0H126.773C152.405 0 165.221 0 175.011 4.98826C183.623 9.37606 190.624 16.3775 195.012 24.989C200 34.779 200 47.5949 200 73.2266V126.773C200 152.405 200 165.221 195.012 175.011C190.624 183.623 183.623 190.624 175.011 195.012C165.221 200 152.405 200 126.773 200H73.2266C47.5949 200 34.779 200 24.989 195.012C16.3775 190.624 9.37606 183.623 4.98826 175.011C0 165.221 0 152.405 0 126.773V73.2266Z" fill="#1C1919"/>
<path d="M30 57.6383V30.0001H54.8739V57.6383H47.5699V36.5152H37.304V57.6383H30Z" fill="white"/>
<path d="M62.115 57.6383V30.0001H82.0539V36.5152H69.419V57.6383H62.115Z" fill="white"/>
<path d="M101.226 54.6573C100.541 55.5391 99.8103 56.2433 99.0345 56.7694C98.2575 57.2961 97.4479 57.6707 96.6058 57.895C95.7636 58.1181 94.8688 58.2306 93.9214 58.2306C93.2106 58.2306 92.4863 58.1578 91.7495 58.0134C91.0127 57.8684 90.2629 57.6903 89.4994 57.4802V51.4397C89.9729 51.6238 90.4925 51.7616 91.0588 51.854C91.6246 51.9463 92.1702 51.9919 92.6975 51.9919C93.5663 51.9919 94.3025 51.854 94.9085 51.5776C95.5139 51.3012 95.9743 50.8077 96.2903 50.0969L96.7247 49.1489L85.9463 30H94.0397L100.12 42.5953L105.095 30H113.189L103.2 51.3208C102.568 52.6635 101.909 53.7755 101.226 54.6573Z" fill="white"/>
<path d="M139.978 30.0003V36.5148H132.2V57.6384H124.896V36.5148H117.078V30.0003H139.978Z" fill="white"/>
<path d="M162.696 57.6383V46.3462C162.696 45.5828 162.708 44.8004 162.735 43.9968C162.76 43.1943 162.801 42.4634 162.855 41.8059L152.036 57.6383H145.127V30.0001H152.431V41.2922C152.431 42.0563 152.417 42.8457 152.392 43.6612C152.365 44.4779 152.326 45.2147 152.274 45.8722L163.091 30.0001H170V57.6383H162.696Z" fill="white"/>
<path d="M91.207 72.2488L81.2402 95.1179H76.0898L86.0742 73.5144H73.2246V69.5242H91.207V72.2488Z" fill="white"/>
<path d="M69.5332 85.3796C69.5332 87.032 69.3398 88.491 68.9531 89.7566C68.5781 91.0105 68.0332 92.0593 67.3184 92.9031C66.6035 93.7585 65.7305 94.4031 64.6992 94.8367C63.668 95.2703 62.5078 95.4871 61.2187 95.4871C59.9414 95.4871 58.7871 95.2703 57.7559 94.8367C56.7246 94.4031 55.8516 93.7585 55.1367 92.9031C54.4102 92.0593 53.8477 91.0105 53.4492 89.7566C53.0625 88.491 52.8691 87.032 52.8691 85.3796V79.2625C52.8691 77.6101 53.0625 76.157 53.4492 74.9031C53.8359 73.6375 54.3926 72.5769 55.1191 71.7214C55.834 70.8777 56.7012 70.239 57.7207 69.8054C58.752 69.3718 59.9062 69.155 61.1836 69.155C62.4727 69.155 63.6328 69.3718 64.6641 69.8054C65.6953 70.239 66.5742 70.8777 67.3008 71.7214C68.0156 72.5769 68.5664 73.6375 68.9531 74.9031C69.3398 76.157 69.5332 77.6101 69.5332 79.2625V85.3796ZM57.791 83.2703L64.6113 78.1902C64.5879 77.2292 64.4824 76.4089 64.2949 75.7292C64.1191 75.0378 63.8555 74.4871 63.5039 74.0769C63.2344 73.7488 62.9004 73.5085 62.502 73.3562C62.1152 73.1921 61.6758 73.1101 61.1836 73.1101C60.6328 73.1101 60.1465 73.2156 59.7246 73.4265C59.3145 73.6257 58.9687 73.9304 58.6875 74.3406C58.3828 74.7742 58.1543 75.3367 58.002 76.0281C57.8613 76.7195 57.791 77.5398 57.791 78.489V81.3191C57.791 81.8816 57.791 82.2566 57.791 82.4441C57.791 82.6316 57.791 82.907 57.791 83.2703ZM64.6113 86.1179V83.1472C64.6113 82.7605 64.6113 82.4792 64.6113 82.3035C64.6113 82.116 64.6113 81.8523 64.6113 81.5125L57.791 86.575C57.8145 87.3484 57.8906 88.0339 58.0195 88.6316C58.1602 89.2292 58.3535 89.7273 58.5996 90.1257C58.8809 90.6062 59.2383 90.9636 59.6719 91.198C60.1055 91.4324 60.6211 91.5496 61.2187 91.5496C61.7695 91.5496 62.2559 91.45 62.6777 91.2507C63.0996 91.0398 63.4512 90.7234 63.7324 90.3015C64.0254 89.8562 64.2422 89.2878 64.3828 88.5964C64.5352 87.8933 64.6113 87.0671 64.6113 86.1179Z" fill="white"/>
<path d="M47.9824 95.1179H30.5273V91.7781L38.8066 82.8835C39.4512 82.1804 39.9961 81.5417 40.4414 80.9675C40.8867 80.3933 41.25 79.866 41.5312 79.3855C41.8008 78.9167 41.9941 78.4773 42.1113 78.0671C42.2402 77.657 42.3047 77.2585 42.3047 76.8718C42.3047 76.2976 42.2227 75.7878 42.0586 75.3425C41.8945 74.8972 41.666 74.5164 41.373 74.2C41.0684 73.8953 40.7051 73.6609 40.2832 73.4968C39.873 73.3328 39.416 73.2507 38.9121 73.2507C38.2559 73.2507 37.6758 73.3445 37.1719 73.532C36.6797 73.7078 36.2695 73.9714 35.9414 74.323C35.6016 74.6863 35.3437 75.1375 35.168 75.6765C34.9922 76.2156 34.9043 76.8308 34.9043 77.5222H30C30 76.3855 30.2168 75.3132 30.6504 74.3054C31.084 73.2859 31.6992 72.3953 32.4961 71.6335C33.2812 70.8718 34.2305 70.2742 35.3437 69.8406C36.4687 69.3953 37.7109 69.1726 39.0703 69.1726C40.3711 69.1726 41.5195 69.3542 42.5156 69.7175C43.5234 70.0808 44.3672 70.5906 45.0469 71.2468C45.7148 71.9031 46.2246 72.6941 46.5762 73.6199C46.9277 74.5339 47.1035 75.5476 47.1035 76.6609C47.1035 77.5046 46.9687 78.3132 46.6992 79.0867C46.4414 79.8484 46.0723 80.6042 45.5918 81.3542C45.0996 82.1042 44.5137 82.8718 43.834 83.657C43.1543 84.4304 42.3984 85.2449 41.5664 86.1003L36.75 91.198H47.9824V95.1179Z" fill="white"/>
<path d="M153.494 82.532L154.953 69.5417H169.156V73.6902H158.979L158.363 79.3152C158.727 79.1042 159.242 78.8875 159.91 78.6648C160.578 78.4421 161.346 78.3308 162.213 78.3308C163.443 78.3308 164.539 78.53 165.5 78.9285C166.473 79.3152 167.293 79.8777 167.961 80.616C168.617 81.3542 169.121 82.2566 169.473 83.323C169.824 84.3894 170 85.5964 170 86.9441C170 88.0925 169.83 89.1824 169.49 90.2136C169.15 91.2449 168.629 92.1531 167.926 92.9382C167.223 93.7234 166.338 94.3445 165.271 94.8015C164.205 95.2585 162.945 95.4871 161.492 95.4871C160.391 95.4871 159.324 95.323 158.293 94.9949C157.273 94.6667 156.365 94.1863 155.568 93.5535C154.771 92.9207 154.121 92.1472 153.617 91.2332C153.125 90.3074 152.861 89.2527 152.826 88.0691H157.643C157.76 89.1824 158.158 90.0437 158.838 90.6531C159.529 91.2625 160.408 91.5671 161.475 91.5671C162.131 91.5671 162.687 91.4441 163.145 91.198C163.613 90.9519 163.994 90.6121 164.287 90.1785C164.568 89.7449 164.773 89.2292 164.902 88.6316C165.043 88.0339 165.113 87.3894 165.113 86.698C165.113 86.0183 165.025 85.3972 164.85 84.8347C164.686 84.2605 164.428 83.7683 164.076 83.3582C163.725 82.948 163.285 82.6316 162.758 82.4089C162.23 82.1863 161.609 82.075 160.895 82.075C160.414 82.075 159.998 82.116 159.646 82.198C159.295 82.28 158.984 82.3855 158.715 82.5144C158.445 82.6433 158.205 82.7957 157.994 82.9714C157.783 83.1355 157.584 83.3113 157.396 83.4988L153.494 82.532Z" fill="white"/>
<path d="M134.984 91.2507C136.297 91.2507 137.434 91.1101 138.395 90.8289C139.355 90.5476 140.164 90.1375 140.82 89.5984C141.453 89.0828 141.945 88.45 142.297 87.7C142.66 86.9382 142.9 86.0886 143.018 85.1511V85.0457C142.771 85.2917 142.496 85.5203 142.191 85.7312C141.887 85.9421 141.553 86.1238 141.189 86.2761C140.803 86.4519 140.369 86.5925 139.889 86.698C139.408 86.7917 138.881 86.8386 138.307 86.8386C137.088 86.8386 136.016 86.616 135.09 86.1707C134.164 85.7253 133.391 85.116 132.77 84.3425C132.137 83.5691 131.656 82.6609 131.328 81.6179C131.012 80.5632 130.854 79.4324 130.854 78.2253C130.854 76.9832 131.047 75.8171 131.434 74.7273C131.832 73.6257 132.4 72.6648 133.139 71.8445C133.877 71.0242 134.768 70.3796 135.811 69.9109C136.865 69.4304 138.049 69.1902 139.361 69.1902C140.697 69.1902 141.898 69.448 142.965 69.9636C144.031 70.4792 144.939 71.2 145.689 72.1257C146.428 73.0515 146.99 74.1531 147.377 75.4304C147.775 76.7078 147.975 78.1082 147.975 79.6316V81.3191C147.975 83.3582 147.723 85.2332 147.219 86.9441C146.715 88.655 145.936 90.1316 144.881 91.3738C143.826 92.6277 142.484 93.6062 140.855 94.3093C139.227 95.0007 137.281 95.3464 135.02 95.3464H134.65V91.2507H134.984ZM139.467 83.0593C139.912 83.0593 140.322 82.9949 140.697 82.866C141.084 82.7371 141.436 82.5554 141.752 82.321C142.057 82.0984 142.32 81.8347 142.543 81.53C142.777 81.2136 142.965 80.8738 143.105 80.5105V78.7703C143.105 77.8328 143.006 77.0125 142.807 76.3093C142.619 75.6062 142.355 75.0203 142.016 74.5515C141.676 74.0828 141.277 73.7312 140.82 73.4968C140.363 73.2625 139.871 73.1453 139.344 73.1453C138.77 73.1453 138.254 73.2859 137.797 73.5671C137.352 73.8367 136.977 74.2 136.672 74.657C136.367 75.1257 136.133 75.6648 135.969 76.2742C135.805 76.8718 135.723 77.4988 135.723 78.155C135.723 78.8113 135.799 79.4382 135.951 80.0359C136.104 80.6335 136.338 81.155 136.654 81.6003C136.959 82.0457 137.346 82.4031 137.814 82.6726C138.283 82.9304 138.834 83.0593 139.467 83.0593Z" fill="white"/>
<path d="M121.977 95.1355H117.037V75.5007L110.568 77.821V73.5671L121.713 69.5417H121.977V95.1355Z" fill="white"/>
<path d="M86.4609 132.744H81.5215V113.109L75.0527 115.429V111.175L86.1973 107.15H86.4609V132.744Z" fill="white"/>
<path d="M64.8398 132.744H59.9004V113.109L53.4316 115.429V111.175L64.5762 107.15H64.8398V132.744Z" fill="white"/>
<path d="M47.9824 132.744H30.5273V129.404L38.8066 120.509C39.4512 119.806 39.9961 119.167 40.4414 118.593C40.8867 118.019 41.25 117.492 41.5312 117.011C41.8008 116.542 41.9941 116.103 42.1113 115.693C42.2402 115.283 42.3047 114.884 42.3047 114.497C42.3047 113.923 42.2227 113.413 42.0586 112.968C41.8945 112.523 41.666 112.142 41.373 111.826C41.0684 111.521 40.7051 111.286 40.2832 111.122C39.873 110.958 39.416 110.876 38.9121 110.876C38.2559 110.876 37.6758 110.97 37.1719 111.158C36.6797 111.333 36.2695 111.597 35.9414 111.949C35.6016 112.312 35.3437 112.763 35.168 113.302C34.9922 113.841 34.9043 114.456 34.9043 115.148H30C30 114.011 30.2168 112.939 30.6504 111.931C31.084 110.911 31.6992 110.021 32.4961 109.259C33.2812 108.497 34.2305 107.9 35.3437 107.466C36.4687 107.021 37.7109 106.798 39.0703 106.798C40.3711 106.798 41.5195 106.98 42.5156 107.343C43.5234 107.706 44.3672 108.216 45.0469 108.872C45.7148 109.529 46.2246 110.32 46.5762 111.245C46.9277 112.16 47.1035 113.173 47.1035 114.286C47.1035 115.13 46.9687 115.939 46.6992 116.712C46.4414 117.474 46.0723 118.23 45.5918 118.98C45.0996 119.73 44.5137 120.497 43.834 121.283C43.1543 122.056 42.3984 122.87 41.5664 123.726L36.75 128.824H47.9824V132.744Z" fill="white"/>
<path d="M170 122.636C170 124.288 169.807 125.747 169.42 127.013C169.045 128.267 168.5 129.316 167.785 130.16C167.07 131.015 166.197 131.66 165.166 132.093C164.135 132.527 162.975 132.744 161.686 132.744C160.408 132.744 159.254 132.527 158.223 132.093C157.191 131.66 156.318 131.015 155.604 130.16C154.877 129.316 154.314 128.267 153.916 127.013C153.529 125.747 153.336 124.288 153.336 122.636V116.519C153.336 114.867 153.529 113.413 153.916 112.16C154.303 110.894 154.859 109.833 155.586 108.978C156.301 108.134 157.168 107.495 158.187 107.062C159.219 106.628 160.373 106.411 161.65 106.411C162.939 106.411 164.1 106.628 165.131 107.062C166.162 107.495 167.041 108.134 167.768 108.978C168.482 109.833 169.033 110.894 169.42 112.16C169.807 113.413 170 114.867 170 116.519V122.636ZM158.258 120.527L165.078 115.447C165.055 114.486 164.949 113.665 164.762 112.986C164.586 112.294 164.322 111.744 163.971 111.333C163.701 111.005 163.367 110.765 162.969 110.613C162.582 110.449 162.143 110.367 161.65 110.367C161.1 110.367 160.613 110.472 160.191 110.683C159.781 110.882 159.436 111.187 159.154 111.597C158.85 112.031 158.621 112.593 158.469 113.285C158.328 113.976 158.258 114.796 158.258 115.745V118.576C158.258 119.138 158.258 119.513 158.258 119.701C158.258 119.888 158.258 120.163 158.258 120.527ZM165.078 123.374V120.404C165.078 120.017 165.078 119.736 165.078 119.56C165.078 119.372 165.078 119.109 165.078 118.769L158.258 123.831C158.281 124.605 158.357 125.29 158.486 125.888C158.627 126.486 158.82 126.984 159.066 127.382C159.348 127.863 159.705 128.22 160.139 128.454C160.572 128.689 161.088 128.806 161.686 128.806C162.236 128.806 162.723 128.706 163.145 128.507C163.566 128.296 163.918 127.98 164.199 127.558C164.492 127.113 164.709 126.544 164.85 125.853C165.002 125.15 165.078 124.324 165.078 123.374Z" fill="white"/>
<path d="M143.686 132.374H138.746V112.74L132.277 115.06V110.806L143.422 106.781H143.686V132.374Z" fill="white"/>
<path d="M126.828 132.374H109.373V129.035L117.652 120.14C118.297 119.437 118.842 118.798 119.287 118.224C119.732 117.65 120.096 117.122 120.377 116.642C120.646 116.173 120.84 115.734 120.957 115.324C121.086 114.913 121.15 114.515 121.15 114.128C121.15 113.554 121.068 113.044 120.904 112.599C120.74 112.154 120.512 111.773 120.219 111.456C119.914 111.152 119.551 110.917 119.129 110.753C118.719 110.589 118.262 110.507 117.758 110.507C117.102 110.507 116.521 110.601 116.018 110.788C115.525 110.964 115.115 111.228 114.787 111.579C114.447 111.943 114.189 112.394 114.014 112.933C113.838 113.472 113.75 114.087 113.75 114.779H108.846C108.846 113.642 109.062 112.57 109.496 111.562C109.93 110.542 110.545 109.652 111.342 108.89C112.127 108.128 113.076 107.531 114.189 107.097C115.314 106.652 116.557 106.429 117.916 106.429C119.217 106.429 120.365 106.611 121.361 106.974C122.369 107.337 123.213 107.847 123.893 108.503C124.561 109.16 125.07 109.951 125.422 110.876C125.773 111.79 125.949 112.804 125.949 113.917C125.949 114.761 125.814 115.57 125.545 116.343C125.287 117.105 124.918 117.861 124.437 118.611C123.945 119.361 123.359 120.128 122.68 120.913C122 121.687 121.244 122.501 120.412 123.357L115.596 128.454H126.828V132.374Z" fill="white"/>
<path d="M91.1543 159.893C91.1543 161.545 90.9609 163.004 90.5742 164.27C90.1992 165.523 89.6543 166.572 88.9395 167.416C88.2246 168.271 87.3516 168.916 86.3203 169.35C85.2891 169.783 84.1289 170 82.8398 170C81.5625 170 80.4082 169.783 79.377 169.35C78.3457 168.916 77.4727 168.271 76.7578 167.416C76.0312 166.572 75.4687 165.523 75.0703 164.27C74.6836 163.004 74.4902 161.545 74.4902 159.893V153.775C74.4902 152.123 74.6836 150.67 75.0703 149.416C75.457 148.15 76.0137 147.09 76.7402 146.234C77.4551 145.391 78.3223 144.752 79.3418 144.318C80.373 143.885 81.5273 143.668 82.8047 143.668C84.0937 143.668 85.2539 143.885 86.2852 144.318C87.3164 144.752 88.1953 145.391 88.9219 146.234C89.6367 147.09 90.1875 148.15 90.5742 149.416C90.9609 150.67 91.1543 152.123 91.1543 153.775V159.893ZM79.4121 157.783L86.2324 152.703C86.209 151.742 86.1035 150.922 85.916 150.242C85.7402 149.551 85.4766 149 85.125 148.59C84.8555 148.262 84.5215 148.021 84.123 147.869C83.7363 147.705 83.2969 147.623 82.8047 147.623C82.2539 147.623 81.7676 147.729 81.3457 147.939C80.9355 148.139 80.5898 148.443 80.3086 148.854C80.0039 149.287 79.7754 149.85 79.623 150.541C79.4824 151.232 79.4121 152.053 79.4121 153.002V155.832C79.4121 156.395 79.4121 156.77 79.4121 156.957C79.4121 157.145 79.4121 157.42 79.4121 157.783ZM86.2324 160.631V157.66C86.2324 157.273 86.2324 156.992 86.2324 156.816C86.2324 156.629 86.2324 156.365 86.2324 156.025L79.4121 161.088C79.4355 161.861 79.5117 162.547 79.6406 163.145C79.7812 163.742 79.9746 164.24 80.2207 164.639C80.502 165.119 80.8594 165.477 81.293 165.711C81.7266 165.945 82.2422 166.062 82.8398 166.062C83.3906 166.062 83.877 165.963 84.2988 165.764C84.7207 165.553 85.0723 165.236 85.3535 164.814C85.6465 164.369 85.8633 163.801 86.0039 163.109C86.1562 162.406 86.2324 161.58 86.2324 160.631Z" fill="white"/>
<path d="M69.5332 159.893C69.5332 161.545 69.3398 163.004 68.9531 164.27C68.5781 165.523 68.0332 166.572 67.3184 167.416C66.6035 168.271 65.7305 168.916 64.6992 169.35C63.668 169.783 62.5078 170 61.2187 170C59.9414 170 58.7871 169.783 57.7559 169.35C56.7246 168.916 55.8516 168.271 55.1367 167.416C54.4102 166.572 53.8477 165.523 53.4492 164.27C53.0625 163.004 52.8691 161.545 52.8691 159.893V153.775C52.8691 152.123 53.0625 150.67 53.4492 149.416C53.8359 148.15 54.3926 147.09 55.1191 146.234C55.834 145.391 56.7012 144.752 57.7207 144.318C58.752 143.885 59.9062 143.668 61.1836 143.668C62.4727 143.668 63.6328 143.885 64.6641 144.318C65.6953 144.752 66.5742 145.391 67.3008 146.234C68.0156 147.09 68.5664 148.15 68.9531 149.416C69.3398 150.67 69.5332 152.123 69.5332 153.775V159.893ZM57.791 157.783L64.6113 152.703C64.5879 151.742 64.4824 150.922 64.2949 150.242C64.1191 149.551 63.8555 149 63.5039 148.59C63.2344 148.262 62.9004 148.021 62.502 147.869C62.1152 147.705 61.6758 147.623 61.1836 147.623C60.6328 147.623 60.1465 147.729 59.7246 147.939C59.3145 148.139 58.9687 148.443 58.6875 148.854C58.3828 149.287 58.1543 149.85 58.002 150.541C57.8613 151.232 57.791 152.053 57.791 153.002V155.832C57.791 156.395 57.791 156.77 57.791 156.957C57.791 157.145 57.791 157.42 57.791 157.783ZM64.6113 160.631V157.66C64.6113 157.273 64.6113 156.992 64.6113 156.816C64.6113 156.629 64.6113 156.365 64.6113 156.025L57.791 161.088C57.8145 161.861 57.8906 162.547 58.0195 163.145C58.1602 163.742 58.3535 164.24 58.5996 164.639C58.8809 165.119 59.2383 165.477 59.6719 165.711C60.1055 165.945 60.6211 166.062 61.2187 166.062C61.7695 166.062 62.2559 165.963 62.6777 165.764C63.0996 165.553 63.4512 165.236 63.7324 164.814C64.0254 164.369 64.2422 163.801 64.3828 163.109C64.5352 162.406 64.6113 161.58 64.6113 160.631Z" fill="white"/>
<path d="M47.9824 169.631H30.5273V166.291L38.8066 157.396C39.4512 156.693 39.9961 156.055 40.4414 155.48C40.8867 154.906 41.25 154.379 41.5312 153.898C41.8008 153.43 41.9941 152.99 42.1113 152.58C42.2402 152.17 42.3047 151.771 42.3047 151.385C42.3047 150.811 42.2227 150.301 42.0586 149.855C41.8945 149.41 41.666 149.029 41.373 148.713C41.0684 148.408 40.7051 148.174 40.2832 148.01C39.873 147.846 39.416 147.764 38.9121 147.764C38.2559 147.764 37.6758 147.857 37.1719 148.045C36.6797 148.221 36.2695 148.484 35.9414 148.836C35.6016 149.199 35.3437 149.65 35.168 150.189C34.9922 150.729 34.9043 151.344 34.9043 152.035H30C30 150.898 30.2168 149.826 30.6504 148.818C31.084 147.799 31.6992 146.908 32.4961 146.146C33.2812 145.385 34.2305 144.787 35.3437 144.354C36.4687 143.908 37.7109 143.686 39.0703 143.686C40.3711 143.686 41.5195 143.867 42.5156 144.23C43.5234 144.594 44.3672 145.104 45.0469 145.76C45.7148 146.416 46.2246 147.207 46.5762 148.133C46.9277 149.047 47.1035 150.061 47.1035 151.174C47.1035 152.018 46.9687 152.826 46.6992 153.6C46.4414 154.361 46.0723 155.117 45.5918 155.867C45.0996 156.617 44.5137 157.385 43.834 158.17C43.1543 158.943 42.3984 159.758 41.5664 160.613L36.75 165.711H47.9824V169.631Z" fill="white"/>
</svg>
